;TYPE=PLATED
;Layer: PTH_Through
;EasyEDA Pro v2.2.44.9, 2025-11-28 14:21:36
;Gerber Generator version 0.3
M48
METRIC,LZ,0000.00000
;Hole size 1 = 0.30500 METRIC
T01C0.30500
;Hole size 2 = 1.10002 METRIC
T02C1.10002
%
G05
G90
T01
X24.07793Y-23.17999
X26.22603Y-22.76994
X27.61Y-22.04353
X27.62129Y-21.06909
X27.60187Y-20.25706
X27.99267Y-19.54508
X27.73344Y-18.50195
X27.73136Y-15.10804
X15.078Y-13.973
X13.386Y-15.748
X16.06083Y-32.893
X31.32021Y-8.255
X17.28608Y-26.24445
X20.066Y-22.987
X25.273Y-25.146
X28.321Y-26.924
X24.8539Y-17.17294
X30.4419Y-17.17294
X25.273Y-12.17803
X28.321Y-10.40003
X29.083Y-11.41603
X24.33193Y-15.1511
X23.114Y-27.2481
X21.59Y-23.21484
X16.637Y-15.13
X13.86Y-28.2829
X26.64816Y-26.543
X25.12416Y-24.511
X30.59Y-27.305
X29.066Y-28.829
X23.224Y-21.717
X25.15997Y-15.621
X28.97073Y-23.94306
X27.95473Y-22.92706
X23.495Y-12.0081
X30.27378Y-20.38535
X30.82325Y-19.21007
T02
X11.811Y-29.337
X11.811Y-26.797
X11.811Y-24.257
X11.811Y-21.717
X11.811Y-19.177
X11.811Y-16.637
X11.811Y-14.097
X11.811Y-11.557
M30