G04 Layer: BottomSilkscreenLayer*
G04 EasyEDA Pro v2.2.44.9, 2025-11-28 14:21:36*
G04 Gerber Generator version 0.3*
G04 Scale: 100 percent, Rotated: No, Reflected: No*
G04 Dimensions in millimeters*
G04 Leading zeros omitted, absolute positions, 4 integers and 5 decimals*
G04 Generated by one-click*
%FSLAX45Y45*%
%MOMM*%
%ADD10C,0.1*%
%ADD11C,0.1524*%
%ADD12C,0.127*%
%ADD13C,0.5*%
%ADD14C,0.5791*%
G75*


G04 Text Start*
G54D10*
G01X2369820Y-2865120D02*
G01X2310638Y-2865120D01*
G01X2369820Y-2865120D02*
G01X2369820Y-2828544D01*
G01X2341626Y-2865120D02*
G01X2341626Y-2842768D01*
G01X2310638Y-2865120D02*
G01X2310638Y-2828544D01*
G01X2369820Y-2804922D02*
G01X2310638Y-2804922D01*
G01X2369820Y-2804922D02*
G01X2310638Y-2765552D01*
G01X2369820Y-2765552D02*
G01X2310638Y-2765552D01*
G01X2361438Y-2702560D02*
G01X2367026Y-2708402D01*
G01X2369820Y-2716784D01*
G01X2369820Y-2727960D01*
G01X2367026Y-2736342D01*
G01X2361438Y-2741930D01*
G01X2355596Y-2741930D01*
G01X2350008Y-2739136D01*
G01X2347214Y-2736342D01*
G01X2344420Y-2730754D01*
G01X2338832Y-2713990D01*
G01X2336038Y-2708402D01*
G01X2333244Y-2705608D01*
G01X2327656Y-2702560D01*
G01X2319020Y-2702560D01*
G01X2313432Y-2708402D01*
G01X2310638Y-2716784D01*
G01X2310638Y-2727960D01*
G01X2313432Y-2736342D01*
G01X2319020Y-2741930D01*
G54D11*
G01X3366680Y-609716D02*
G01X3366680Y-674740D01*
G01X3366680Y-609716D02*
G01X3338740Y-609716D01*
G01X3329596Y-612764D01*
G01X3326548Y-615812D01*
G01X3323246Y-622162D01*
G01X3323246Y-628258D01*
G01X3326548Y-634354D01*
G01X3329596Y-637402D01*
G01X3338740Y-640704D01*
G01X3366680Y-640704D01*
G01X3345090Y-640704D02*
G01X3323246Y-674740D01*
G01X3293020Y-609716D02*
G01X3293020Y-674740D01*
G01X3293020Y-609716D02*
G01X3265334Y-609716D01*
G01X3255936Y-612764D01*
G01X3252888Y-615812D01*
G01X3249840Y-622162D01*
G01X3249840Y-631306D01*
G01X3252888Y-637402D01*
G01X3255936Y-640704D01*
G01X3265334Y-643752D01*
G01X3293020Y-643752D01*
G01X3219614Y-622162D02*
G01X3213518Y-618860D01*
G01X3204374Y-609716D01*
G01X3204374Y-674740D01*
G04 Text End*

G04 PolygonModel Start*
G54D10*
G01X3220300Y-2769000D02*
G01X3220300Y-1054500D01*
G01X3029800Y-2959500D02*
G01X1632800Y-2959500D01*
G54D12*
G01X2780800Y-864000D02*
G01X2780427Y-772973D01*
G01X2730427Y-723000D02*
G01X1930900Y-723000D01*
G01X1880900Y-773000D02*
G01X1880900Y-864000D01*
G54D10*
G01X1636800Y-864000D02*
G01X3036800Y-864000D01*
G01X1442300Y-2769000D02*
G01X1442300Y-1054500D01*
G01X3220300Y-1054100D02*
G03X3029800Y-863600I-190500J-0D01*
G01X3029800Y-2959500D02*
G03X3220300Y-2769000I-0J190500D01*
G54D12*
G01X2780427Y-772973D02*
G03X2730427Y-723000I-50002J-29D01*
G01X1930900Y-723000D02*
G03X1880900Y-773000I0J-50000D01*
G54D10*
G01X1632800Y-864000D02*
G03X1442300Y-1054500I0J-190500D01*
G01X1442300Y-2769000D02*
G03X1632800Y-2959500I190500J0D01*

G04 Circle Start*
G54D13*
G01X3215900Y-906780D02*
G03X3266700Y-906780I25400J0D01*
G03X3215900Y-906780I-25400J0D01*
G01X3088500Y-977900D02*
G03X3139300Y-977900I25400J0D01*
G03X3088500Y-977900I-25400J0D01*
G04 Circle End*

M02*

