G04 Layer: DrillDrawingLayer*
G04 EasyEDA Pro v2.2.44.9, 2025-11-28 14:21:36*
G04 Gerber Generator version 0.3*
G04 Scale: 100 percent, Rotated: No, Reflected: No*
G04 Dimensions in millimeters*
G04 Leading zeros omitted, absolute positions, 4 integers and 5 decimals*
G04 Generated by one-click*
%FSLAX45Y45*%
%MOMM*%
%AMIconRect*4,1,4,0.28,-0.28,-0.28,-0.28,-0.28,0.28,0.28,0.28,0.28,-0.28,0*4,0,4,0.233333,-0.233333,0.233333,0.233333,-0.233333,0.233333,-0.233333,-0.233333,0.233333,-0.233333,0*%
%ADD10IconRect*%
%ADD11C,0.616X0.522667*%
G75*


G04 Drill Drawing Start*
G54D10*
G01X1181100Y-2933700D03*
G01X1181100Y-2679700D03*
G01X1181100Y-2425700D03*
G01X1181100Y-2171700D03*
G01X1181100Y-1917700D03*
G01X1181100Y-1663700D03*
G01X1181100Y-1409700D03*
G01X1181100Y-1155700D03*
G54D11*
G01X1338600Y-1574800D03*
G01X1386000Y-2828290D03*
G01X1507800Y-1397300D03*
G01X1606083Y-3289300D03*
G01X1663700Y-1513000D03*
G01X1728608Y-2624445D03*
G01X2006600Y-2298700D03*
G01X2159000Y-2321484D03*
G01X2311400Y-2724810D03*
G01X2322400Y-2171700D03*
G01X2349500Y-1200810D03*
G01X2407793Y-2317999D03*
G01X2433193Y-1515110D03*
G01X2485390Y-1717294D03*
G01X2512416Y-2451100D03*
G01X2515997Y-1562100D03*
G01X2527300Y-1217803D03*
G01X2527300Y-2514600D03*
G01X2622603Y-2276994D03*
G01X2664816Y-2654300D03*
G01X2760187Y-2025706D03*
G01X2761000Y-2204353D03*
G01X2762129Y-2106909D03*
G01X2773136Y-1510804D03*
G01X2773344Y-1850195D03*
G01X2795473Y-2292706D03*
G01X2799267Y-1954508D03*
G01X2832100Y-2692400D03*
G01X2832100Y-1040003D03*
G01X2897073Y-2394306D03*
G01X2906600Y-2882900D03*
G01X2908300Y-1141603D03*
G01X3027378Y-2038535D03*
G01X3044190Y-1717294D03*
G01X3059000Y-2730500D03*
G01X3082325Y-1921007D03*
G01X3132021Y-825500D03*
G04 Drill Drawing End*

M02*

