G04 Layer: BottomLayer*
G04 EasyEDA Pro v2.2.44.9, 2025-11-28 14:21:36*
G04 Gerber Generator version 0.3*
G04 Scale: 100 percent, Rotated: No, Reflected: No*
G04 Dimensions in millimeters*
G04 Leading zeros omitted, absolute positions, 4 integers and 5 decimals*
G04 Generated by one-click*
%FSLAX45Y45*%
%MOMM*%
%AMRoundRect*1,1,$1,$2,$3*1,1,$1,$4,$5*1,1,$1,0-$2,0-$3*1,1,$1,0-$4,0-$5*20,1,$1,$2,$3,$4,$5,0*20,1,$1,$4,$5,0-$2,0-$3,0*20,1,$1,0-$2,0-$3,0-$4,0-$5,0*20,1,$1,0-$4,0-$5,$2,$3,0*4,1,4,$2,$3,$4,$5,0-$2,0-$3,0-$4,0-$5,$2,$3,0*%
%ADD10R,1.7X1.7*%
%ADD11C,1.7*%
%ADD12RoundRect,1.0X-0.875X0.5X0.875X0.5*%
%ADD13RoundRect,0.55X-0.275X-0.975X-0.275X0.975*%
%ADD14C,0.61*%
%ADD15C,0.2517*%
%ADD16C,0.254*%
G75*


G04 Pad Start*
G54D10*
G01X1181100Y-2933700D03*
G54D11*
G01X1181100Y-2679700D03*
G01X1181100Y-2425700D03*
G01X1181100Y-2171700D03*
G54D10*
G01X1181100Y-1917700D03*
G54D11*
G01X1181100Y-1663700D03*
G01X1181100Y-1409700D03*
G01X1181100Y-1155700D03*
G54D12*
G01X3236800Y-1155700D03*
G01X3236800Y-1409700D03*
G01X3236800Y-1663700D03*
G01X3236800Y-1917700D03*
G01X3236800Y-2171700D03*
G01X3236800Y-2425700D03*
G01X3236800Y-2679700D03*
G01X1436800Y-2679700D03*
G01X1436800Y-2425700D03*
G01X1436800Y-2171700D03*
G01X1436800Y-1917700D03*
G01X1436800Y-1663700D03*
G01X1436800Y-1409700D03*
G01X1436800Y-1155700D03*
G54D13*
G01X2463800Y-2781700D03*
G01X2209800Y-2781700D03*
G54D11*
G01X2463800Y-1079900D03*
G01X2209800Y-1079900D03*
G01X2463800Y-1333900D03*
G01X2209800Y-1333900D03*
G04 Pad End*

G04 Via Start*
G54D14*
G01X2407793Y-2317999D03*
G01X2622603Y-2276994D03*
G01X2761000Y-2204353D03*
G01X2762129Y-2106909D03*
G01X2760187Y-2025706D03*
G01X2799267Y-1954508D03*
G01X2773344Y-1850195D03*
G01X2773136Y-1510804D03*
G01X1507800Y-1397300D03*
G01X1338600Y-1574800D03*
G01X1606083Y-3289300D03*
G01X3132021Y-825500D03*
G01X1728608Y-2624445D03*
G01X2006600Y-2298700D03*
G01X2527300Y-2514600D03*
G01X2832100Y-2692400D03*
G01X2485390Y-1717294D03*
G01X3044190Y-1717294D03*
G01X2527300Y-1217803D03*
G01X2832100Y-1040003D03*
G01X2908300Y-1141603D03*
G01X2433193Y-1515110D03*
G01X2311400Y-2724810D03*
G01X2159000Y-2321484D03*
G01X1663700Y-1513000D03*
G01X1386000Y-2828290D03*
G01X2664816Y-2654300D03*
G01X2512416Y-2451100D03*
G01X3059000Y-2730500D03*
G01X2906600Y-2882900D03*
G01X2322400Y-2171700D03*
G01X2515997Y-1562100D03*
G01X2897073Y-2394306D03*
G01X2795473Y-2292706D03*
G01X2349500Y-1200810D03*
G01X3027378Y-2038535D03*
G01X3082325Y-1921007D03*
G04 Via End*

G04 Track Start*
G54D16*
G01X2773136Y-1510804D02*
G01X2874240Y-1409700D01*
G01X3236800Y-1409700D01*
G01X1507800Y-1397300D02*
G01X1557300Y-1446800D01*
G01X1436800Y-3214800D02*
G01X1511300Y-3289300D01*
G01X1068200Y-2726465D02*
G01X1134335Y-2792600D01*
G01X1302033Y-2792600D01*
G01X1436800Y-2927367D02*
G01X1436800Y-3214800D01*
G01X1295700Y-1804800D02*
G01X1084544Y-1804800D01*
G01X1068200Y-1821144D01*
G01X1068200Y-2726465D01*
G01X1511300Y-3289300D02*
G01X1600200Y-3289300D01*
G01X1557300Y-1446800D02*
G01X2510721Y-1446800D01*
G01X3132021Y-825500D01*
G01X3012821Y-2425700D02*
G01X3224100Y-2425700D01*
G01X3402200Y-2761967D02*
G01X3356567Y-2807600D01*
G01X3236800Y-1663700D02*
G01X3402200Y-1829100D01*
G01X3402200Y-2761967D01*
G01X2490491Y-2106909D02*
G01X2762129Y-2106909D01*
G01X3356567Y-2807600D02*
G01X2693048Y-2807600D01*
G01X2349393Y-2463945D01*
G01X2349393Y-2248007D01*
G01X2490491Y-2106909D01*
G01X2407793Y-2317999D02*
G01X2581598Y-2317999D01*
G01X2622603Y-2276994D01*
G01X2761000Y-2204353D02*
G01X2791474Y-2204353D01*
G01X3012821Y-2425700D01*
G01X3224100Y-2152667D02*
G01X3224100Y-2171700D01*
G01X2773344Y-1850195D02*
G01X2259972Y-1850195D01*
G01X1430467Y-2679700D01*
G01X1424100Y-2679700D01*
G01X1728608Y-2624445D02*
G01X2006600Y-2346453D01*
G01X2006600Y-2298700D01*
G01X2832100Y-2692400D02*
G01X2654300Y-2514600D01*
G01X2527300Y-1217803D02*
G01X2654300Y-1217803D01*
G01X2832100Y-1040003D01*
G01X2908300Y-1141603D02*
G01X2560193Y-1489710D01*
G01X2458593Y-1489710D01*
G01X2433193Y-1515110D01*
G01X2311400Y-2724810D02*
G01X2311400Y-2575484D01*
G01X2159000Y-2423084D01*
G01X2159000Y-2321484D01*
G01X1663700Y-1513000D02*
G01X1587500Y-1513000D01*
G01X1436800Y-1663700D01*
G01X1309800Y-1790700D02*
G01X1081200Y-1790700D01*
G01X1055800Y-1816100D01*
G01X1055800Y-2726690D01*
G01X1132000Y-2802890D01*
G01X1309800Y-2802890D01*
G01X1335200Y-2828290D01*
G01X2664816Y-2654300D02*
G01X2664816Y-2603500D01*
G01X3236800Y-2679700D02*
G01X3109800Y-2679700D01*
G01X3059000Y-2730500D01*
G01X2906600Y-2882900D02*
G01X2830400Y-2959100D01*
G01X2424000Y-2959100D01*
G01X2373200Y-2908300D01*
G01X2373200Y-2552700D01*
G01X2297000Y-2476500D01*
G01X2297000Y-2197100D01*
G01X2322400Y-2171700D01*
G01X3236800Y-1409700D02*
G01X3084400Y-1562100D01*
G01X2515997Y-1562100D01*
G01X2897073Y-2394306D02*
G01X2795473Y-2292706D01*
G01X2349500Y-1200810D02*
G01X1645690Y-1200810D01*
G01X1436800Y-1409700D01*
G01X1436800Y-1663700D02*
G01X1309800Y-1790700D01*
G01X1295700Y-1804800D01*
G01X1302033Y-2792600D02*
G01X1337723Y-2828290D01*
G01X1436800Y-2927367D01*
G01X1335200Y-2828290D02*
G01X1337723Y-2828290D01*
G01X1386000Y-2828290D01*
G01X2654300Y-2514600D02*
G01X2575916Y-2514600D01*
G01X2527300Y-2514600D01*
G01X2664816Y-2603500D02*
G01X2575916Y-2514600D01*
G01X2512416Y-2451100D01*
G01X2485390Y-1717294D02*
G01X3044190Y-1717294D01*
G01X2799267Y-1954508D02*
G01X2799267Y-1906863D01*
G01X2760187Y-2025706D02*
G01X3014549Y-2025706D01*
G01X3027378Y-2038535D01*
G01X2799267Y-1906863D02*
G01X2826530Y-1879600D01*
G01X2951033Y-1879600D01*
G01X3224100Y-2152667D01*
G01X3236800Y-1917700D02*
G01X3233493Y-1921007D01*
G01X3082325Y-1921007D01*
G04 Track End*

M02*

