G04 Layer: TopPasteMaskLayer*
G04 EasyEDA Pro v2.2.44.9, 2025-11-28 14:21:36*
G04 Gerber Generator version 0.3*
G04 Scale: 100 percent, Rotated: No, Reflected: No*
G04 Dimensions in millimeters*
G04 Leading zeros omitted, absolute positions, 4 integers and 5 decimals*
G04 Generated by one-click*
%FSLAX45Y45*%
%MOMM*%
%ADD10R,1.3589X1.5*%
%ADD11R,1.5X1.3589*%
%ADD12R,0.9X0.8*%
%ADD13R,0.8X0.9*%
%ADD14C,0.6945*%
G75*


G04 PolygonModel Start*
G36*
G01X2554290Y-1531295D02*
G02X2554290Y-1503294I0J14000D01*
G01X2721290Y-1503294D01*
G02X2721290Y-1531295I0J-14000D01*
G01X2554290Y-1531295D01*
G37*
G36*
G01X2554290Y-1581307D02*
G02X2554290Y-1553307I0J14000D01*
G01X2721290Y-1553307D01*
G02X2721290Y-1581307I0J-14000D01*
G01X2554290Y-1581307D01*
G37*
G36*
G01X2554290Y-1631295D02*
G02X2554290Y-1603294I0J14000D01*
G01X2721290Y-1603294D01*
G02X2721290Y-1631295I0J-14000D01*
G01X2554290Y-1631295D01*
G37*
G36*
G01X2554290Y-1681307D02*
G02X2554290Y-1653306I0J14000D01*
G01X2721290Y-1653306D01*
G02X2721290Y-1681307I0J-14000D01*
G01X2554290Y-1681307D01*
G37*
G36*
G01X2554290Y-1731294D02*
G02X2554290Y-1703294I0J14000D01*
G01X2721290Y-1703294D01*
G02X2721290Y-1731294I0J-14000D01*
G01X2554290Y-1731294D01*
G37*
G36*
G01X2554290Y-1781307D02*
G02X2554290Y-1753306I0J14000D01*
G01X2721290Y-1753306D01*
G02X2721290Y-1781307I0J-14000D01*
G01X2554290Y-1781307D01*
G37*
G36*
G01X2554290Y-1831294D02*
G02X2554290Y-1803293I0J14000D01*
G01X2721290Y-1803293D01*
G02X2721290Y-1831294I0J-14000D01*
G01X2554290Y-1831294D01*
G37*
G36*
G01X2554290Y-1881307D02*
G02X2554290Y-1853306I0J14000D01*
G01X2721290Y-1853306D01*
G02X2721290Y-1881307I0J-14000D01*
G01X2554290Y-1881307D01*
G37*
G36*
G01X2554290Y-1931294D02*
G02X2554290Y-1903293I0J14000D01*
G01X2721290Y-1903293D01*
G02X2721290Y-1931294I0J-14000D01*
G01X2554290Y-1931294D01*
G37*
G36*
G01X2554290Y-1981307D02*
G02X2554290Y-1953306I0J14000D01*
G01X2721290Y-1953306D01*
G02X2721290Y-1981307I0J-14000D01*
G01X2554290Y-1981307D01*
G37*
G36*
G01X2554290Y-2031294D02*
G02X2554290Y-2003293I0J14000D01*
G01X2721290Y-2003293D01*
G02X2721290Y-2031294I0J-14000D01*
G01X2554290Y-2031294D01*
G37*
G36*
G01X2554290Y-2081306D02*
G02X2554290Y-2053306I0J14000D01*
G01X2721290Y-2053306D01*
G02X2721290Y-2081306I0J-14000D01*
G01X2554290Y-2081306D01*
G37*
G36*
G01X2554290Y-2131294D02*
G02X2554290Y-2103293I0J14000D01*
G01X2721290Y-2103293D01*
G02X2721290Y-2131294I0J-14000D01*
G01X2554290Y-2131294D01*
G37*
G36*
G01X2554290Y-2181306D02*
G02X2554290Y-2153305I0J14000D01*
G01X2721290Y-2153305D01*
G02X2721290Y-2181306I0J-14000D01*
G01X2554290Y-2181306D01*
G37*
G36*
G01X2554290Y-2231293D02*
G02X2554290Y-2203293I0J14000D01*
G01X2721290Y-2203293D01*
G02X2721290Y-2231293I0J-14000D01*
G01X2554290Y-2231293D01*
G37*
G36*
G01X2554290Y-2281306D02*
G02X2554290Y-2253305I0J14000D01*
G01X2721290Y-2253305D01*
G02X2721290Y-2281306I0J-14000D01*
G01X2554290Y-2281306D01*
G37*
G36*
G01X2471806Y-1420810D02*
G02X2443805Y-1420810I-14000J0D01*
G01X2443805Y-1253810D01*
G02X2471806Y-1253810I14000J0D01*
G01X2471806Y-1420810D01*
G37*
G36*
G01X2421793Y-1420810D02*
G02X2393793Y-1420810I-14000J0D01*
G01X2393793Y-1253810D01*
G02X2421793Y-1253810I14000J0D01*
G01X2421793Y-1420810D01*
G37*
G36*
G01X2371806Y-1420810D02*
G02X2343805Y-1420810I-14000J0D01*
G01X2343805Y-1253810D01*
G02X2371806Y-1253810I14000J0D01*
G01X2371806Y-1420810D01*
G37*
G36*
G01X2321794Y-1420810D02*
G02X2293793Y-1420810I-14000J0D01*
G01X2293793Y-1253810D01*
G02X2321794Y-1253810I14000J0D01*
G01X2321794Y-1420810D01*
G37*
G36*
G01X2271806Y-1420810D02*
G02X2243806Y-1420810I-14000J0D01*
G01X2243806Y-1253810D01*
G02X2271806Y-1253810I14000J0D01*
G01X2271806Y-1420810D01*
G37*
G36*
G01X2221794Y-1420810D02*
G02X2193793Y-1420810I-14000J0D01*
G01X2193793Y-1253810D01*
G02X2221794Y-1253810I14000J0D01*
G01X2221794Y-1420810D01*
G37*
G36*
G01X2171807Y-1420810D02*
G02X2143806Y-1420810I-14000J0D01*
G01X2143806Y-1253810D01*
G02X2171807Y-1253810I14000J0D01*
G01X2171807Y-1420810D01*
G37*
G36*
G01X2121794Y-1420810D02*
G02X2093793Y-1420810I-14000J0D01*
G01X2093793Y-1253810D01*
G02X2121794Y-1253810I14000J0D01*
G01X2121794Y-1420810D01*
G37*
G36*
G01X2071807Y-1420810D02*
G02X2043806Y-1420810I-14000J0D01*
G01X2043806Y-1253810D01*
G02X2071807Y-1253810I14000J0D01*
G01X2071807Y-1420810D01*
G37*
G36*
G01X2021794Y-1420810D02*
G02X1993793Y-1420810I-14000J0D01*
G01X1993793Y-1253810D01*
G02X2021794Y-1253810I14000J0D01*
G01X2021794Y-1420810D01*
G37*
G36*
G01X1971807Y-1420810D02*
G02X1943806Y-1420810I-14000J0D01*
G01X1943806Y-1253810D01*
G02X1971807Y-1253810I14000J0D01*
G01X1971807Y-1420810D01*
G37*
G36*
G01X1921794Y-1420810D02*
G02X1893794Y-1420810I-14000J0D01*
G01X1893794Y-1253810D01*
G02X1921794Y-1253810I14000J0D01*
G01X1921794Y-1420810D01*
G37*
G36*
G01X1871807Y-1420810D02*
G02X1843806Y-1420810I-14000J0D01*
G01X1843806Y-1253810D01*
G02X1871807Y-1253810I14000J0D01*
G01X1871807Y-1420810D01*
G37*
G36*
G01X1821795Y-1420810D02*
G02X1793794Y-1420810I-14000J0D01*
G01X1793794Y-1253810D01*
G02X1821795Y-1253810I14000J0D01*
G01X1821795Y-1420810D01*
G37*
G36*
G01X1771807Y-1420810D02*
G02X1743807Y-1420810I-14000J0D01*
G01X1743807Y-1253810D01*
G02X1771807Y-1253810I14000J0D01*
G01X1771807Y-1420810D01*
G37*
G36*
G01X1721795Y-1420810D02*
G02X1693794Y-1420810I-14000J0D01*
G01X1693794Y-1253810D01*
G02X1721795Y-1253810I14000J0D01*
G01X1721795Y-1420810D01*
G37*
G36*
G01X1611310Y-1503294D02*
G02X1611310Y-1531295I0J-14000D01*
G01X1444310Y-1531295D01*
G02X1444310Y-1503294I0J14000D01*
G01X1611310Y-1503294D01*
G37*
G36*
G01X1611310Y-1553307D02*
G02X1611310Y-1581307I0J-14000D01*
G01X1444310Y-1581307D01*
G02X1444310Y-1553307I0J14000D01*
G01X1611310Y-1553307D01*
G37*
G36*
G01X1611310Y-1603294D02*
G02X1611310Y-1631295I0J-14000D01*
G01X1444310Y-1631295D01*
G02X1444310Y-1603294I0J14000D01*
G01X1611310Y-1603294D01*
G37*
G36*
G01X1611310Y-1653306D02*
G02X1611310Y-1681307I0J-14000D01*
G01X1444310Y-1681307D01*
G02X1444310Y-1653306I0J14000D01*
G01X1611310Y-1653306D01*
G37*
G36*
G01X1611310Y-1703294D02*
G02X1611310Y-1731294I0J-14000D01*
G01X1444310Y-1731294D01*
G02X1444310Y-1703294I0J14000D01*
G01X1611310Y-1703294D01*
G37*
G36*
G01X1611310Y-1753306D02*
G02X1611310Y-1781307I0J-14000D01*
G01X1444310Y-1781307D01*
G02X1444310Y-1753306I0J14000D01*
G01X1611310Y-1753306D01*
G37*
G36*
G01X1611310Y-1803293D02*
G02X1611310Y-1831294I0J-14000D01*
G01X1444310Y-1831294D01*
G02X1444310Y-1803293I0J14000D01*
G01X1611310Y-1803293D01*
G37*
G36*
G01X1611310Y-1853306D02*
G02X1611310Y-1881307I0J-14000D01*
G01X1444310Y-1881307D01*
G02X1444310Y-1853306I0J14000D01*
G01X1611310Y-1853306D01*
G37*
G36*
G01X1611310Y-1903293D02*
G02X1611310Y-1931294I0J-14000D01*
G01X1444310Y-1931294D01*
G02X1444310Y-1903293I0J14000D01*
G01X1611310Y-1903293D01*
G37*
G36*
G01X1611310Y-1953306D02*
G02X1611310Y-1981307I0J-14000D01*
G01X1444310Y-1981307D01*
G02X1444310Y-1953306I0J14000D01*
G01X1611310Y-1953306D01*
G37*
G36*
G01X1611310Y-2003293D02*
G02X1611310Y-2031294I0J-14000D01*
G01X1444310Y-2031294D01*
G02X1444310Y-2003293I0J14000D01*
G01X1611310Y-2003293D01*
G37*
G36*
G01X1611310Y-2053306D02*
G02X1611310Y-2081306I0J-14000D01*
G01X1444310Y-2081306D01*
G02X1444310Y-2053306I0J14000D01*
G01X1611310Y-2053306D01*
G37*
G36*
G01X1611310Y-2103293D02*
G02X1611310Y-2131294I0J-14000D01*
G01X1444310Y-2131294D01*
G02X1444310Y-2103293I0J14000D01*
G01X1611310Y-2103293D01*
G37*
G36*
G01X1611310Y-2153305D02*
G02X1611310Y-2181306I0J-14000D01*
G01X1444310Y-2181306D01*
G02X1444310Y-2153305I0J14000D01*
G01X1611310Y-2153305D01*
G37*
G36*
G01X1611310Y-2203293D02*
G02X1611310Y-2231293I0J-14000D01*
G01X1444310Y-2231293D01*
G02X1444310Y-2203293I0J14000D01*
G01X1611310Y-2203293D01*
G37*
G36*
G01X1611310Y-2253305D02*
G02X1611310Y-2281306I0J-14000D01*
G01X1444310Y-2281306D01*
G02X1444310Y-2253305I0J14000D01*
G01X1611310Y-2253305D01*
G37*
G36*
G01X1693794Y-2363790D02*
G02X1721795Y-2363790I14000J0D01*
G01X1721795Y-2530790D01*
G02X1693794Y-2530790I-14000J0D01*
G01X1693794Y-2363790D01*
G37*
G36*
G01X1743807Y-2363790D02*
G02X1771807Y-2363790I14000J0D01*
G01X1771807Y-2530790D01*
G02X1743807Y-2530790I-14000J0D01*
G01X1743807Y-2363790D01*
G37*
G36*
G01X1793794Y-2363790D02*
G02X1821795Y-2363790I14000J0D01*
G01X1821795Y-2530790D01*
G02X1793794Y-2530790I-14000J0D01*
G01X1793794Y-2363790D01*
G37*
G36*
G01X1843806Y-2363790D02*
G02X1871807Y-2363790I14000J0D01*
G01X1871807Y-2530790D01*
G02X1843806Y-2530790I-14000J0D01*
G01X1843806Y-2363790D01*
G37*
G36*
G01X1893794Y-2363790D02*
G02X1921794Y-2363790I14000J0D01*
G01X1921794Y-2530790D01*
G02X1893794Y-2530790I-14000J0D01*
G01X1893794Y-2363790D01*
G37*
G36*
G01X1943806Y-2363790D02*
G02X1971807Y-2363790I14000J0D01*
G01X1971807Y-2530790D01*
G02X1943806Y-2530790I-14000J0D01*
G01X1943806Y-2363790D01*
G37*
G36*
G01X1993793Y-2363790D02*
G02X2021794Y-2363790I14000J0D01*
G01X2021794Y-2530790D01*
G02X1993793Y-2530790I-14000J0D01*
G01X1993793Y-2363790D01*
G37*
G36*
G01X2043806Y-2363790D02*
G02X2071807Y-2363790I14000J0D01*
G01X2071807Y-2530790D01*
G02X2043806Y-2530790I-14000J0D01*
G01X2043806Y-2363790D01*
G37*
G36*
G01X2093793Y-2363790D02*
G02X2121794Y-2363790I14000J0D01*
G01X2121794Y-2530790D01*
G02X2093793Y-2530790I-14000J0D01*
G01X2093793Y-2363790D01*
G37*
G36*
G01X2143806Y-2363790D02*
G02X2171807Y-2363790I14000J0D01*
G01X2171807Y-2530790D01*
G02X2143806Y-2530790I-14000J0D01*
G01X2143806Y-2363790D01*
G37*
G36*
G01X2193793Y-2363790D02*
G02X2221794Y-2363790I14000J0D01*
G01X2221794Y-2530790D01*
G02X2193793Y-2530790I-14000J0D01*
G01X2193793Y-2363790D01*
G37*
G36*
G01X2243806Y-2363790D02*
G02X2271806Y-2363790I14000J0D01*
G01X2271806Y-2530790D01*
G02X2243806Y-2530790I-14000J0D01*
G01X2243806Y-2363790D01*
G37*
G36*
G01X2293793Y-2363790D02*
G02X2321794Y-2363790I14000J0D01*
G01X2321794Y-2530790D01*
G02X2293793Y-2530790I-14000J0D01*
G01X2293793Y-2363790D01*
G37*
G36*
G01X2343805Y-2363790D02*
G02X2371806Y-2363790I14000J0D01*
G01X2371806Y-2530790D01*
G02X2343805Y-2530790I-14000J0D01*
G01X2343805Y-2363790D01*
G37*
G36*
G01X2393793Y-2363790D02*
G02X2421793Y-2363790I14000J0D01*
G01X2421793Y-2530790D01*
G02X2393793Y-2530790I-14000J0D01*
G01X2393793Y-2363790D01*
G37*
G36*
G01X2443805Y-2363790D02*
G02X2471806Y-2363790I14000J0D01*
G01X2471806Y-2530790D01*
G02X2443805Y-2530790I-14000J0D01*
G01X2443805Y-2363790D01*
G37*
G36*
G01X3148200Y-2284849D02*
G01X3148200Y-2248718D01*
G01X3158200Y-2238718D01*
G01X3179257Y-2238718D01*
G01X3189257Y-2228718D01*
G01X3189257Y-2190882D01*
G01X3179257Y-2180882D01*
G01X3158200Y-2180882D01*
G01X3148200Y-2170882D01*
G01X3148200Y-2134751D01*
G01X3158200Y-2124751D01*
G01X3258952Y-2124751D01*
G01X3268952Y-2134751D01*
G01X3268952Y-2284849D01*
G01X3258952Y-2294849D01*
G01X3158200Y-2294849D01*
G01X3148200Y-2284849D01*
G37*
G36*
G01X2973200Y-2284849D02*
G01X2973200Y-2248718D01*
G01X2963200Y-2238718D01*
G01X2942143Y-2238718D01*
G01X2932143Y-2228718D01*
G01X2932143Y-2190882D01*
G01X2942143Y-2180882D01*
G01X2963200Y-2180882D01*
G01X2973200Y-2170882D01*
G01X2973200Y-2134751D01*
G01X2963200Y-2124751D01*
G01X2862448Y-2124751D01*
G01X2852448Y-2134751D01*
G01X2852448Y-2284849D01*
G01X2862448Y-2294849D01*
G01X2963200Y-2294849D01*
G01X2973200Y-2284849D01*
G37*
G36*
G01X3140723Y-2033114D02*
G01X3140723Y-1996982D01*
G01X3150723Y-1986982D01*
G01X3171779Y-1986982D01*
G01X3181779Y-1976982D01*
G01X3181779Y-1939146D01*
G01X3171779Y-1929147D01*
G01X3150723Y-1929147D01*
G01X3140723Y-1919147D01*
G01X3140723Y-1883015D01*
G01X3150723Y-1873015D01*
G01X3251474Y-1873015D01*
G01X3261474Y-1883015D01*
G01X3261474Y-2033114D01*
G01X3251474Y-2043114D01*
G01X3150723Y-2043114D01*
G01X3140723Y-2033114D01*
G37*
G36*
G01X2965722Y-2033114D02*
G01X2965722Y-1996982D01*
G01X2955722Y-1986982D01*
G01X2934665Y-1986982D01*
G01X2924665Y-1976982D01*
G01X2924665Y-1939146D01*
G01X2934665Y-1929147D01*
G01X2955722Y-1929147D01*
G01X2965722Y-1919147D01*
G01X2965722Y-1883015D01*
G01X2955722Y-1873015D01*
G01X2854970Y-1873015D01*
G01X2844970Y-1883015D01*
G01X2844970Y-2033114D01*
G01X2854970Y-2043114D01*
G01X2955722Y-2043114D01*
G01X2965722Y-2033114D01*
G37*
G36*
G01X3148200Y-1789549D02*
G01X3148200Y-1753418D01*
G01X3158200Y-1743418D01*
G01X3179257Y-1743418D01*
G01X3189257Y-1733418D01*
G01X3189257Y-1695582D01*
G01X3179257Y-1685582D01*
G01X3158200Y-1685582D01*
G01X3148200Y-1675582D01*
G01X3148200Y-1639451D01*
G01X3158200Y-1629451D01*
G01X3258952Y-1629451D01*
G01X3268952Y-1639451D01*
G01X3268952Y-1789549D01*
G01X3258952Y-1799549D01*
G01X3158200Y-1799549D01*
G01X3148200Y-1789549D01*
G37*
G36*
G01X2973200Y-1789549D02*
G01X2973200Y-1753418D01*
G01X2963200Y-1743418D01*
G01X2942143Y-1743418D01*
G01X2932143Y-1733418D01*
G01X2932143Y-1695582D01*
G01X2942143Y-1685582D01*
G01X2963200Y-1685582D01*
G01X2973200Y-1675582D01*
G01X2973200Y-1639451D01*
G01X2963200Y-1629451D01*
G01X2862448Y-1629451D01*
G01X2852448Y-1639451D01*
G01X2852448Y-1789549D01*
G01X2862448Y-1799549D01*
G01X2963200Y-1799549D01*
G01X2973200Y-1789549D01*
G37*
G36*
G01X3122800Y-1535549D02*
G01X3122800Y-1499418D01*
G01X3132800Y-1489418D01*
G01X3153857Y-1489418D01*
G01X3163857Y-1479418D01*
G01X3163857Y-1441582D01*
G01X3153857Y-1431582D01*
G01X3132800Y-1431582D01*
G01X3122800Y-1421582D01*
G01X3122800Y-1385451D01*
G01X3132800Y-1375451D01*
G01X3233552Y-1375451D01*
G01X3243552Y-1385451D01*
G01X3243552Y-1535549D01*
G01X3233552Y-1545549D01*
G01X3132800Y-1545549D01*
G01X3122800Y-1535549D01*
G37*
G36*
G01X2947800Y-1535549D02*
G01X2947800Y-1499418D01*
G01X2937800Y-1489418D01*
G01X2916743Y-1489418D01*
G01X2906743Y-1479418D01*
G01X2906743Y-1441582D01*
G01X2916743Y-1431582D01*
G01X2937800Y-1431582D01*
G01X2947800Y-1421582D01*
G01X2947800Y-1385451D01*
G01X2937800Y-1375451D01*
G01X2837048Y-1375451D01*
G01X2827048Y-1385451D01*
G01X2827048Y-1535549D01*
G01X2837048Y-1545549D01*
G01X2937800Y-1545549D01*
G01X2947800Y-1535549D01*
G37*
G36*
G01X2178759Y-2892116D02*
G01X2141733Y-2892116D01*
G01X2131733Y-2882116D01*
G01X2131733Y-2851626D01*
G01X2121733Y-2841626D01*
G01X2082983Y-2841626D01*
G01X2072983Y-2851626D01*
G01X2072983Y-2882116D01*
G01X2062983Y-2892116D01*
G01X2025957Y-2892116D01*
G01X2015957Y-2882116D01*
G01X2015957Y-2753618D01*
G01X2025957Y-2743618D01*
G01X2178759Y-2743618D01*
G01X2188759Y-2753618D01*
G01X2188759Y-2882116D01*
G01X2178759Y-2892116D01*
G37*
G36*
G01X2178759Y-3062119D02*
G01X2141733Y-3062119D01*
G01X2131733Y-3072119D01*
G01X2131733Y-3102609D01*
G01X2121733Y-3112609D01*
G01X2082983Y-3112609D01*
G01X2072983Y-3102609D01*
G01X2072983Y-3072119D01*
G01X2062983Y-3062119D01*
G01X2025957Y-3062119D01*
G01X2015957Y-3072119D01*
G01X2015957Y-3200617D01*
G01X2025957Y-3210617D01*
G01X2178759Y-3210617D01*
G01X2188759Y-3200617D01*
G01X2188759Y-3072119D01*
G01X2178759Y-3062119D01*
G37*

G04 Pad Start*
G54D10*
G01X2019300Y-1047090D03*
G01X2019300Y-807110D03*
G01X1765300Y-1097890D03*
G01X1765300Y-857910D03*
G01X2387600Y-1072490D03*
G01X2387600Y-832510D03*
G01X2628900Y-1186790D03*
G01X2628900Y-946810D03*
G54D11*
G01X2902610Y-1257300D03*
G01X3142590Y-1257300D03*
G54D10*
G01X2456790Y-2642921D03*
G01X2456790Y-2882900D03*
G01X1524000Y-2648610D03*
G01X1524000Y-2888590D03*
G01X1905000Y-2674010D03*
G01X1905000Y-2913990D03*
G01X1696110Y-2908300D03*
G01X1696110Y-2668321D03*
G01X2204110Y-1066800D03*
G01X2204110Y-826821D03*
G54D12*
G01X2184400Y-666902D03*
G01X2184400Y-526898D03*
G54D10*
G01X2286000Y-2851810D03*
G01X2286000Y-3091790D03*
G54D13*
G01X2038198Y-2616200D03*
G01X2178202Y-2616200D03*
G04 Pad End*

M02*

