;TYPE=PLATED
;Layer: PTH_Through
;EasyEDA Pro v2.2.43.4, 2025-11-04 15:45:13
;Gerber Generator version 0.3
M48
METRIC,LZ,0000.00000
;Hole size 1 = 0.30500 METRIC
T01C0.30500
;Hole size 2 = 0.90002 METRIC
T02C0.90002
;Hole size 3 = 1.10002 METRIC
T03C1.10002
%
G05
G90
T01
X32.36224Y-41.86885
X31.7881Y-37.084
X19.90217Y-41.656
X25.6921Y-44.89806
X41.19093Y-34.8361
X44.49293Y-34.8361
X42.8879Y-38.11194
X45.9359Y-36.33394
X39.5859Y-37.61994
X42.1259Y-29.74594
X38.35575Y-42.74792
X50.03975Y-43.76392
X37.56406Y-46.1899
X32.73806Y-46.4439
X37.29406Y-46.9519
X24.42464Y-44.9199
X36.05606Y-39.0779
X28.69006Y-38.0619
X35.56406Y-52.5399
X36.32606Y-54.8259
X32.5501Y-37.84194
X31.2801Y-33.909
X33.8201Y-31.623
X39.6621Y-31.369
X42.2021Y-31.115
X28.4861Y-40.62806
X32.5501Y-40.513
X38.8239Y-37.58006
X38.0619Y-39.06393
X36.0299Y-38.04793
X36.2839Y-36.52393
X39.26307Y-38.37407
X39.8399Y-39.11194
X41.6179Y-33.26994
X40.8559Y-31.99994
X35.88893Y-43.48607
X39.5859Y-41.87393
X39.8399Y-40.87393
X34.1249Y-41.21487
X34.1249Y-39.85793
X27.52601Y-40.74437
X32.84241Y-41.24814
X34.112Y-42.05452
X33.91577Y-43.00212
X31.877Y-43.18
X30.607Y-47.498
X32.893Y-47.47551
X32.766Y-50.165
T02
X28.067Y-59.69
X43.307Y-57.15
X43.30746Y-52.06944
X43.30746Y-46.98947
X43.30746Y-41.90947
X43.30746Y-36.82947
X43.30746Y-31.74947
X43.30746Y-26.66947
X28.067Y-24.13
X28.06746Y-29.21051
X28.06746Y-34.29051
X28.06746Y-39.37051
X28.06746Y-44.45053
X28.06746Y-49.53051
X28.06746Y-54.61048
X28.06697Y-57.15
X28.06697Y-52.07
X28.06697Y-46.99
X28.06697Y-41.91003
X28.06697Y-36.83003
X28.06697Y-31.75003
X28.06697Y-26.67003
X43.30697Y-24.12997
X43.30697Y-29.20995
X43.30697Y-34.28995
X43.30697Y-39.36995
X43.30697Y-44.44995
X43.30697Y-49.52995
X43.30697Y-54.60992
X43.307Y-59.69
T03
X15.113Y-42.926
X15.113Y-40.386
X15.113Y-37.846
X15.113Y-35.306
X57.023Y-43.053
X57.023Y-40.513
X57.023Y-37.973
X57.023Y-35.433
M30