G04 Layer: TopLayer*
G04 EasyEDA Pro v2.2.44.9, 2025-11-28 14:21:36*
G04 Gerber Generator version 0.3*
G04 Scale: 100 percent, Rotated: No, Reflected: No*
G04 Dimensions in millimeters*
G04 Leading zeros omitted, absolute positions, 4 integers and 5 decimals*
G04 Generated by one-click*
%FSLAX45Y45*%
%MOMM*%
%ADD10R,1.3589X1.5*%
%ADD11R,1.5X1.3589*%
%ADD12R,0.9X0.8*%
%ADD13R,0.8X0.9*%
%ADD14R,1.7X1.7*%
%ADD15C,1.7*%
%ADD16O,0.28001X1.8*%
%ADD17O,1.8X0.28001*%
%ADD18R,1.20752X1.70101*%
%ADD19R,1.7336X1.48501*%
%ADD20R,1.72799X1.48501*%
%ADD21C,0.61*%
%ADD22C,0.254*%
%ADD23C,0.508*%
G75*


G04 Pad Start*
G54D10*
G01X2019300Y-1047090D03*
G01X2019300Y-807110D03*
G01X1765300Y-1097890D03*
G01X1765300Y-857910D03*
G01X2387600Y-1072490D03*
G01X2387600Y-832510D03*
G01X2628900Y-1186790D03*
G01X2628900Y-946810D03*
G54D11*
G01X2902610Y-1257300D03*
G01X3142590Y-1257300D03*
G54D10*
G01X2456790Y-2642921D03*
G01X2456790Y-2882900D03*
G01X1524000Y-2648610D03*
G01X1524000Y-2888590D03*
G01X1905000Y-2674010D03*
G01X1905000Y-2913990D03*
G01X1696110Y-2908300D03*
G01X1696110Y-2668321D03*
G01X2204110Y-1066800D03*
G01X2204110Y-826821D03*
G54D12*
G01X2184400Y-666902D03*
G01X2184400Y-526898D03*
G54D10*
G01X2286000Y-2851810D03*
G01X2286000Y-3091790D03*
G54D13*
G01X2038198Y-2616200D03*
G01X2178202Y-2616200D03*
G54D14*
G01X1181100Y-2933700D03*
G54D15*
G01X1181100Y-2679700D03*
G01X1181100Y-2425700D03*
G01X1181100Y-2171700D03*
G54D14*
G01X1181100Y-1917700D03*
G54D15*
G01X1181100Y-1663700D03*
G01X1181100Y-1409700D03*
G01X1181100Y-1155700D03*
G54D16*
G01X1707794Y-1337310D03*
G01X1757807Y-1337310D03*
G01X1807794Y-1337310D03*
G01X1857807Y-1337310D03*
G01X1907794Y-1337310D03*
G01X1957807Y-1337310D03*
G01X2007794Y-1337310D03*
G01X2057806Y-1337310D03*
G01X2107794Y-1337310D03*
G01X2157806Y-1337310D03*
G01X2207793Y-1337310D03*
G01X2257806Y-1337310D03*
G01X2307793Y-1337310D03*
G01X2357806Y-1337310D03*
G01X2407793Y-1337310D03*
G01X2457806Y-1337310D03*
G54D17*
G01X2637790Y-1517294D03*
G01X2637790Y-1567307D03*
G01X2637790Y-1617294D03*
G01X2637790Y-1667307D03*
G01X2637790Y-1717294D03*
G01X2637790Y-1767307D03*
G01X2637790Y-1817294D03*
G01X2637790Y-1867306D03*
G01X2637790Y-1917294D03*
G01X2637790Y-1967306D03*
G01X2637790Y-2017293D03*
G01X2637790Y-2067306D03*
G01X2637790Y-2117293D03*
G01X2637790Y-2167306D03*
G01X2637790Y-2217293D03*
G01X2637790Y-2267306D03*
G54D16*
G01X2457806Y-2447290D03*
G01X2407793Y-2447290D03*
G01X2357806Y-2447290D03*
G01X2307793Y-2447290D03*
G01X2257806Y-2447290D03*
G01X2207793Y-2447290D03*
G01X2157806Y-2447290D03*
G01X2107794Y-2447290D03*
G01X2057806Y-2447290D03*
G01X2007794Y-2447290D03*
G01X1957807Y-2447290D03*
G01X1907794Y-2447290D03*
G01X1857807Y-2447290D03*
G01X1807794Y-2447290D03*
G01X1757807Y-2447290D03*
G01X1707794Y-2447290D03*
G54D17*
G01X1527810Y-2267306D03*
G01X1527810Y-2217293D03*
G01X1527810Y-2167306D03*
G01X1527810Y-2117293D03*
G01X1527810Y-2067306D03*
G01X1527810Y-2017293D03*
G01X1527810Y-1967306D03*
G01X1527810Y-1917294D03*
G01X1527810Y-1867306D03*
G01X1527810Y-1817294D03*
G01X1527810Y-1767307D03*
G01X1527810Y-1717294D03*
G01X1527810Y-1667307D03*
G01X1527810Y-1617294D03*
G01X1527810Y-1567307D03*
G01X1527810Y-1517294D03*
G54D18*
G01X3208579Y-2209800D03*
G01X2912821Y-2209800D03*
G01X3201101Y-1958064D03*
G01X2905343Y-1958064D03*
G01X3208579Y-1714500D03*
G01X2912821Y-1714500D03*
G01X3183179Y-1460500D03*
G01X2887421Y-1460500D03*
G54D20*
G01X2102358Y-2817859D03*
G01X2102358Y-3136375D03*
G04 Pad End*

G04 Via Start*
G54D21*
G01X2407793Y-2317999D03*
G01X2622603Y-2276994D03*
G01X2761000Y-2204353D03*
G01X2762129Y-2106909D03*
G01X2760187Y-2025706D03*
G01X2799267Y-1954508D03*
G01X2773344Y-1850195D03*
G01X2773136Y-1510804D03*
G01X1507800Y-1397300D03*
G01X1338600Y-1574800D03*
G01X1606083Y-3289300D03*
G01X3132021Y-825500D03*
G01X1728608Y-2624445D03*
G01X2006600Y-2298700D03*
G01X2527300Y-2514600D03*
G01X2832100Y-2692400D03*
G01X2485390Y-1717294D03*
G01X3044190Y-1717294D03*
G01X2527300Y-1217803D03*
G01X2832100Y-1040003D03*
G01X2908300Y-1141603D03*
G01X2433193Y-1515110D03*
G01X2311400Y-2724810D03*
G01X2159000Y-2321484D03*
G01X1663700Y-1513000D03*
G01X1386000Y-2828290D03*
G01X2664816Y-2654300D03*
G01X2512416Y-2451100D03*
G01X3059000Y-2730500D03*
G01X2906600Y-2882900D03*
G01X2322400Y-2171700D03*
G01X2515997Y-1562100D03*
G01X2897073Y-2394306D03*
G01X2795473Y-2292706D03*
G01X2349500Y-1200810D03*
G01X3027378Y-2038535D03*
G01X3082325Y-1921007D03*
G04 Via End*

G04 Track Start*
G54D22*
G01X2166010Y-890321D02*
G01X2166010Y-705510D01*
G01X2152498Y-691998D01*
G01X2152498Y-673100D01*
G01X2107794Y-1337310D02*
G01X2107794Y-1186383D01*
G01X1765300Y-1144803D02*
G01X1765300Y-1097890D01*
G01X1899739Y-1111146D02*
G01X2007794Y-1219200D01*
G01X1957807Y-1337310D02*
G01X1957807Y-1246607D01*
G01X1917700Y-1206500D01*
G01X1826997Y-1206500D01*
G01X1765300Y-1144803D01*
G01X2157806Y-1337310D02*
G01X2149694Y-1329198D01*
G01X2149694Y-1146616D01*
G01X2207793Y-1337310D02*
G01X2209800Y-1335303D01*
G01X2209800Y-1243512D01*
G01X2380822Y-1072490D02*
G01X2387600Y-1072490D01*
G01X2007794Y-1219200D02*
G01X2007794Y-1337310D01*
G01X2387600Y-832510D02*
G01X2386636Y-831546D01*
G01X1765300Y-857910D02*
G01X1847190Y-857910D01*
G01X1899739Y-805361D01*
G01X1899739Y-716461D02*
G01X1899739Y-805361D01*
G01X2019300Y-596900D02*
G01X1899739Y-716461D01*
G01X2373936Y-406400D02*
G01X2386636Y-393700D01*
G01X2184400Y-526898D02*
G01X2184400Y-406736D01*
G01X2184064Y-406400D01*
G01X2373936Y-406400D01*
G01X1907794Y-2645816D02*
G01X1905000Y-2648610D01*
G01X2140458Y-3277823D02*
G01X2128981Y-3289300D01*
G01X2140458Y-3136375D02*
G01X2140458Y-3277823D01*
G01X2107794Y-2447290D02*
G01X2115906Y-2455402D01*
G01X2115906Y-2540645D01*
G01X2165502Y-2590242D01*
G01X2025498Y-2616200D02*
G01X2057806Y-2583891D01*
G01X2102358Y-3136375D02*
G01X2140458Y-3136375D01*
G01X2257806Y-2682494D02*
G01X2159000Y-2781300D01*
G01X2286000Y-3091790D02*
G01X2286000Y-3289012D01*
G01X2285712Y-3289300D01*
G54D23*
G01X2128981Y-3289300D02*
G01X2285712Y-3289300D01*
G01X2456790Y-3289300D01*
G54D22*
G01X2603500Y-2678612D02*
G01X2513512Y-2768600D01*
G01X2369210Y-2768600D01*
G01X2286000Y-2851810D01*
G01X1866900Y-3253996D02*
G01X1902204Y-3289300D01*
G01X1957807Y-2447290D02*
G01X1957807Y-2362047D01*
G01X1925150Y-2329390D02*
G01X1690439Y-2329390D01*
G01X1574800Y-2445029D01*
G01X1574800Y-2654300D01*
G01X1587500Y-2641600D01*
G01X1587500Y-2635910D01*
G01X1536700Y-2939390D02*
G01X1587500Y-2888590D01*
G01X1536700Y-3240459D02*
G01X1536700Y-2939390D01*
G01X1585541Y-3289300D02*
G01X1536700Y-3240459D01*
G01X1696110Y-2908300D02*
G01X1696110Y-3271171D01*
G01X1714240Y-3289300D01*
G54D23*
G01X1902204Y-3289300D02*
G01X1714240Y-3289300D01*
G01X1585541Y-3289300D01*
G54D22*
G01X1181100Y-1670583D02*
G01X1181100Y-1663700D01*
G01X1527810Y-1967306D02*
G01X1421206Y-1967306D01*
G01X1181100Y-1250035D02*
G01X1181100Y-1155700D01*
G01X1295400Y-1784883D02*
G01X1181100Y-1670583D01*
G01X1421206Y-1967306D02*
G01X1346200Y-1892300D01*
G01X1295400Y-1917700D02*
G01X1295400Y-1784883D01*
G01X1368806Y-2067306D02*
G01X1219200Y-1917700D01*
G01X1181100Y-1917700D01*
G01X1397000Y-1871752D02*
G01X1397000Y-1465935D01*
G01X1181100Y-1250035D01*
G01X2107794Y-1186383D02*
G01X2032000Y-1110590D01*
G01X2032000Y-1016000D01*
G01X2019300Y-596900D02*
G01X2019300Y-571164D01*
G01X2184064Y-406400D01*
G54D23*
G01X2386635Y-393700D02*
G01X2386636Y-406400D01*
G54D22*
G01X2386636Y-831546D02*
G01X2386636Y-406400D01*
G01X1235507Y-2117293D02*
G01X1527810Y-2117293D01*
G01X1181100Y-2425700D02*
G01X1181100Y-2336800D01*
G01X1350594Y-2167306D01*
G01X1527810Y-2167306D01*
G01X1520317Y-2209800D02*
G01X1527810Y-2217293D01*
G01X1181100Y-2679700D02*
G01X1181100Y-2616200D01*
G01X1384300Y-2209800D02*
G01X1520317Y-2209800D01*
G01X1308100Y-2286000D02*
G01X1384300Y-2209800D01*
G01X1181100Y-2933700D02*
G01X1181100Y-2845030D01*
G01X1415694Y-2267306D02*
G01X1527810Y-2267306D01*
G01X1181100Y-2845030D02*
G01X1346200Y-2679930D01*
G01X1346200Y-2336800D01*
G01X1415694Y-2267306D01*
G01X2407793Y-1337310D02*
G01X2415905Y-1329198D01*
G01X2415905Y-1243955D01*
G01X2440450Y-1219410D01*
G01X2527090Y-1219410D01*
G01X2572410Y-1174090D02*
G01X2654300Y-1174090D01*
G01X2499190Y-1158410D02*
G01X2473790Y-1183810D01*
G01X3142590Y-1257300D02*
G01X3342397Y-1257300D01*
G01X3345361Y-1260263D01*
G01X3345361Y-856161D01*
G01X3345361Y-2073018D02*
G01X3345361Y-1813805D01*
G01X3208579Y-1714500D02*
G01X3345361Y-1577718D01*
G01X3345361Y-1813805D02*
G01X3345361Y-1577718D01*
G01X3183179Y-1460500D02*
G01X3214343Y-1460500D01*
G01X3345361Y-1329483D01*
G01X3345361Y-1577718D02*
G01X3345361Y-1329483D01*
G01X3345361Y-1260263D01*
G01X2545261Y-838200D02*
G01X2499190Y-884271D01*
G01X2897784Y-1257300D02*
G01X2902610Y-1257300D01*
G01X2637790Y-1517294D02*
G01X2637790Y-1426493D01*
G01X2806983Y-1257300D01*
G01X2897784Y-1257300D01*
G01X2628900Y-946810D02*
G01X2628900Y-838205D01*
G01X2637790Y-1667307D02*
G01X2865628Y-1667307D01*
G01X2723033Y-1717294D02*
G01X2637790Y-1717294D01*
G01X2832100Y-2374900D02*
G01X2912821Y-2294179D01*
G01X2912821Y-2209800D01*
G01X2519890Y-1849951D02*
G01X2519890Y-2284661D01*
G01X2610129Y-2374900D01*
G01X2832100Y-2374900D01*
G01X2628895Y-838200D02*
G01X2545261Y-838200D01*
G01X2859028Y-838200D02*
G01X2768600Y-928628D01*
G01X2859028Y-838200D02*
G01X2628895Y-838200D01*
G01X2660781Y-1337310D02*
G01X2457806Y-1337310D01*
G01X2768600Y-1229491D02*
G01X2660781Y-1337310D01*
G01X3321530Y-2096849D02*
G01X3345361Y-2073018D01*
G01X3208579Y-2209800D02*
G01X3321530Y-2096849D01*
G01X2637790Y-1817294D02*
G01X2552547Y-1817294D01*
G01X2519890Y-1849951D01*
G54D23*
G01X3073400Y-406400D02*
G01X2386636Y-406400D01*
G54D22*
G01X2157806Y-2447290D02*
G01X2157806Y-2362021D01*
G01X2357806Y-2599106D02*
G01X2401621Y-2642921D01*
G01X2456790Y-2642921D01*
G01X2271928Y-2247900D02*
G01X2425700Y-2247900D01*
G01X2603500Y-2425700D01*
G01X2603500Y-2678612D01*
G01X2407793Y-2447290D02*
G01X2407793Y-2317999D01*
G54D23*
G01X2128981Y-3289300D02*
G01X1902204Y-3289300D01*
G01X2456790Y-3289300D02*
G01X2456790Y-3207410D01*
G54D22*
G01X2456790Y-2882900D02*
G01X2456790Y-3207410D01*
G01X1905000Y-2921000D02*
G01X1866900Y-2959100D01*
G01X1866900Y-3253996D01*
G54D23*
G01X3429000Y-2235200D02*
G01X3429000Y-762000D01*
G01X3073400Y-406400D01*
G54D22*
G01X2819400Y-2118338D02*
G01X2840889Y-2096849D01*
G01X2905343Y-1958064D02*
G01X2905343Y-1899604D01*
G01X2723033Y-1717294D01*
G01X2637790Y-2117293D02*
G01X2751745Y-2117293D01*
G01X2762129Y-2106909D01*
G01X2637790Y-1917294D02*
G01X2723059Y-1917294D01*
G01X2755690Y-1884662D01*
G01X2637790Y-1967306D02*
G01X2735997Y-1967306D01*
G01X2744410Y-1958893D01*
G01X2637790Y-2017293D02*
G01X2645902Y-2025405D01*
G01X2731145Y-2025405D01*
G01X2744410Y-1958893D02*
G01X2794882Y-1958893D01*
G01X2799267Y-1954508D01*
G01X2764206Y-1617294D02*
G01X2887421Y-1494079D01*
G01X2887421Y-1460500D01*
G01X2637790Y-1567307D02*
G01X2723033Y-1567307D01*
G01X2755690Y-1534650D01*
G01X2755690Y-1528250D01*
G01X2773136Y-1510804D01*
G01X3132021Y-825500D02*
G01X2871728Y-825500D01*
G01X2859028Y-838200D01*
G01X3345361Y-856161D02*
G01X3314700Y-825500D01*
G01X3132021Y-825500D01*
G01X2755690Y-1884662D02*
G01X2755690Y-1867850D01*
G01X2773344Y-1850195D01*
G01X2785190Y-2268200D02*
G01X2819400Y-2233990D01*
G01X2819400Y-2132228D01*
G01X2637790Y-2267306D02*
G01X2619591Y-2267306D01*
G01X2618697Y-2268200D01*
G01X2618697Y-2273087D01*
G01X2622603Y-2276994D01*
G01X2637790Y-2217293D02*
G01X2748059Y-2217293D01*
G01X2761000Y-2204353D01*
G01X2007794Y-2299894D02*
G01X2006600Y-2298700D01*
G01X1728608Y-2624445D02*
G01X1696110Y-2656942D01*
G01X1807794Y-2545259D02*
G01X1792235Y-2560818D01*
G01X1907794Y-2447290D02*
G01X1907794Y-2560818D01*
G01X1907794Y-2645816D01*
G01X1728608Y-2624445D02*
G01X1792235Y-2560818D01*
G01X1857807Y-2447290D02*
G01X1907794Y-2447290D01*
G01X1957807Y-1337310D02*
G01X2007794Y-1337310D01*
G01X2057806Y-1337310D01*
G01X2107794Y-1337310D01*
G01X2207793Y-1337310D02*
G01X2199707Y-1345397D01*
G01X2199707Y-1430665D01*
G01X2175162Y-1455210D01*
G01X2140450Y-1455210D01*
G01X2115906Y-1430665D01*
G01X2115906Y-1345755D01*
G01X2114094Y-1343944D01*
G01X2114094Y-1343611D01*
G01X2107794Y-1337310D01*
G01X2457806Y-2447290D02*
G01X2459990Y-2447290D01*
G54D23*
G01X2911455Y-2752745D02*
G01X2851111Y-2692400D01*
G01X2832100Y-2692400D01*
G01X2456790Y-3207410D02*
G01X2911455Y-2752745D01*
G01X3429000Y-2235200D01*
G54D22*
G01X2456790Y-2642921D02*
G01X2357806Y-2543937D01*
G01X2102358Y-2817859D02*
G01X2257806Y-2662411D01*
G01X1181100Y-1663700D02*
G01X1301217Y-1783817D01*
G01X1301217Y-1917700D01*
G01X1181100Y-1501216D02*
G01X1342390Y-1662506D01*
G01X1418590Y-1959686D02*
G01X1520190Y-1959686D01*
G01X1527810Y-1967306D01*
G01X1181100Y-1917700D02*
G01X1330706Y-2067306D01*
G01X1181100Y-2171700D02*
G01X1235507Y-2117293D01*
G01X1181100Y-2679700D02*
G01X1294003Y-2566797D01*
G01X1400810Y-2217293D02*
G01X1527810Y-2217293D01*
G01X1181100Y-2933700D02*
G01X1409700Y-2705100D01*
G01X1409700Y-2385416D01*
G01X1527810Y-2267306D01*
G01X1181100Y-1155700D02*
G01X1409700Y-1384300D01*
G01X1409700Y-1892300D02*
G01X1434694Y-1917294D01*
G01X1524000Y-2648610D02*
G01X1524000Y-2470810D01*
G01X1674520Y-2320290D01*
G01X1928520Y-2320290D01*
G01X1953920Y-2345690D01*
G01X1953920Y-2443404D02*
G01X1957807Y-2447290D01*
G01X2204110Y-826821D02*
G01X2204110Y-686613D01*
G01X2184400Y-666902D01*
G01X2756027Y-1617294D02*
G01X2871230Y-1502092D01*
G01X2871230Y-1476692D01*
G01X2887421Y-1460500D01*
G01X2865628Y-1667307D02*
G01X2912821Y-1714500D01*
G01X2637790Y-1717294D02*
G01X2485390Y-1717294D01*
G01X2558313Y-1186790D02*
G01X2527300Y-1217803D01*
G01X2832100Y-1040003D02*
G01X2832100Y-1065403D01*
G01X2908300Y-1141603D01*
G01X2433193Y-1515110D02*
G01X2407793Y-1489710D01*
G01X2407793Y-1337310D01*
G01X2204110Y-1066800D02*
G01X2157806Y-1113104D01*
G01X2038198Y-2616200D02*
G01X2057806Y-2596591D01*
G01X2286000Y-2851810D02*
G01X2286000Y-2750210D01*
G01X2311400Y-2724810D01*
G01X2159000Y-2446096D02*
G01X2157806Y-2447290D01*
G01X1776679Y-869290D02*
G01X1765300Y-857910D01*
G01X1776679Y-869290D02*
G01X1776679Y-1086510D01*
G01X1765300Y-1097890D01*
G01X2019300Y-1047090D02*
G01X2019300Y-1326490D01*
G01X2007794Y-1337310D01*
G01X2019300Y-1326490D02*
G01X2046986Y-1326490D01*
G01X2057806Y-1337310D01*
G01X2107794Y-1337310D02*
G01X2107794Y-1438910D01*
G01X2133194Y-1464310D01*
G01X2183994Y-1464310D01*
G01X2209394Y-1438910D01*
G01X2209394Y-1338910D01*
G01X2207793Y-1337310D01*
G01X2207793Y-1235710D01*
G01X2258593Y-1184910D01*
G01X2275180Y-1184910D02*
G01X2387600Y-1072490D01*
G01X2387600Y-832510D01*
G01X2019300Y-691998D02*
G01X2184400Y-526898D01*
G01X1765300Y-1097890D02*
G01X1663700Y-1199490D01*
G01X1663700Y-1513000D01*
G01X1386000Y-2828290D02*
G01X1462200Y-2752090D01*
G01X1680794Y-2675890D02*
G01X1688541Y-2675890D01*
G01X1696110Y-2668321D01*
G01X1807794Y-2447290D02*
G01X1857807Y-2447290D01*
G01X2133194Y-1464310D02*
G01X2007794Y-1589710D01*
G01X1528394Y-2752090D02*
G01X1528394Y-2884195D01*
G01X1524000Y-2888590D01*
G01X1782394Y-2574290D02*
G01X1805280Y-2574290D01*
G01X1905000Y-2674010D01*
G01X1528394Y-2884195D02*
G01X1672006Y-2884195D01*
G01X1696110Y-2908300D01*
G01X1899310Y-2908300D01*
G01X1905000Y-2913990D01*
G01X2102358Y-3111348D01*
G01X2102358Y-3136375D01*
G01X2102358Y-3111348D02*
G01X2266442Y-3111348D01*
G01X2286000Y-3091790D01*
G01X2286000Y-3053690D01*
G01X2456790Y-2882900D01*
G01X2664816Y-2674874D01*
G01X2664816Y-2654300D01*
G01X2461616Y-2451100D02*
G01X2457806Y-2447290D01*
G01X3059000Y-2730500D02*
G01X2906600Y-2882900D01*
G01X2322400Y-2171700D02*
G01X2322400Y-1981097D01*
G01X2536190Y-1767307D01*
G01X2637790Y-1767307D01*
G01X2515997Y-1562100D02*
G01X2632583Y-1562100D01*
G01X2637790Y-1567307D01*
G01X2902610Y-1257300D02*
G01X3142590Y-1257300D01*
G01X3142590Y-1419911D01*
G01X3183179Y-1460500D01*
G01X3183179Y-1689100D01*
G01X3208579Y-1714500D01*
G01X3208579Y-1950587D01*
G01X3201101Y-2202322D02*
G01X3208579Y-2209800D01*
G01X2897784Y-1257300D02*
G01X2637790Y-1517294D01*
G01X2457806Y-1337310D01*
G01X2679700Y-997610D02*
G01X2628900Y-997610D01*
G01X2501900Y-1124610D01*
G01X2501900Y-1150010D01*
G01X2476500Y-1175410D02*
G01X2425700Y-1175410D01*
G01X3208579Y-2209800D02*
G01X3024073Y-2394306D01*
G01X2897073Y-2394306D01*
G01X2795473Y-2292706D02*
G01X2663190Y-2292706D01*
G01X2107794Y-2545791D02*
G01X2107794Y-2447290D01*
G01X2357806Y-2447290D02*
G01X2357806Y-2543937D01*
G01X2357806Y-2599106D01*
G01X2257806Y-2447290D02*
G01X2257806Y-2662411D01*
G01X2257806Y-2682494D01*
G01X1394993Y-2017293D02*
G01X1397902Y-2020202D01*
G01X1181100Y-1504035D02*
G01X1181100Y-1501216D01*
G01X1181100Y-1409700D01*
G01X1346200Y-1669135D02*
G01X1342390Y-1665325D01*
G01X1181100Y-1504035D01*
G01X1346200Y-1892300D02*
G01X1346200Y-1887296D01*
G01X1346200Y-1669135D01*
G01X1342390Y-1662506D02*
G01X1342390Y-1665325D01*
G01X1342390Y-1883486D01*
G01X1346200Y-1887296D01*
G01X1418590Y-1959686D01*
G01X1330706Y-2067306D02*
G01X1368806Y-2067306D01*
G01X1527810Y-2067306D01*
G01X1181100Y-2616200D02*
G01X1294003Y-2503297D01*
G01X1308100Y-2489200D01*
G01X1442541Y-1917294D02*
G01X1409700Y-1884452D01*
G01X1397000Y-1871752D01*
G01X1409700Y-1384300D02*
G01X1409700Y-1884452D01*
G01X1409700Y-1892300D01*
G01X1434694Y-1917294D02*
G01X1442541Y-1917294D01*
G01X1527810Y-1917294D01*
G01X1957807Y-2362047D02*
G01X1953920Y-2358161D01*
G01X1925150Y-2329390D01*
G01X1953920Y-2345690D02*
G01X1953920Y-2358161D01*
G01X1953920Y-2443404D01*
G01X2637790Y-1617294D02*
G01X2756027Y-1617294D01*
G01X2764206Y-1617294D01*
G01X2527090Y-1219410D02*
G01X2559710Y-1186790D01*
G01X2572410Y-1174090D01*
G01X2149694Y-1146616D02*
G01X2157806Y-1138504D01*
G01X2166010Y-1130300D01*
G01X2157806Y-1113104D02*
G01X2157806Y-1138504D01*
G01X2157806Y-1337310D01*
G01X2057806Y-2596591D02*
G01X2057806Y-2583891D01*
G01X2057806Y-2447290D01*
G01X2157806Y-2362021D02*
G01X2159000Y-2360828D01*
G01X2271928Y-2247900D01*
G01X2159000Y-2321484D02*
G01X2159000Y-2360828D01*
G01X2159000Y-2446096D01*
G01X2019300Y-691998D02*
G01X2019300Y-596900D01*
G01X2019300Y-1047090D02*
G01X2019300Y-869290D01*
G01X2019300Y-807110D01*
G01X1899739Y-805361D02*
G01X1899739Y-869290D01*
G01X1899739Y-1111146D01*
G01X2019300Y-869290D02*
G01X1899739Y-869290D01*
G01X1776679Y-869290D01*
G01X2209800Y-1243512D02*
G01X2268402Y-1184910D01*
G01X2380822Y-1072490D01*
G01X2258593Y-1184910D02*
G01X2268402Y-1184910D01*
G01X2275180Y-1184910D01*
G01X1792235Y-2560818D02*
G01X1795867Y-2560818D01*
G01X1907794Y-2560818D01*
G01X2007794Y-1589710D02*
G01X2007794Y-2299894D01*
G01X2007794Y-2447290D01*
G01X1604594Y-2752090D02*
G01X1680794Y-2675890D01*
G01X1696110Y-2660574D01*
G01X1782394Y-2574290D01*
G01X1795867Y-2560818D01*
G01X1807794Y-2548890D01*
G01X1696110Y-2656942D02*
G01X1696110Y-2660574D01*
G01X1696110Y-2668321D01*
G01X1905000Y-2888590D02*
G01X1905000Y-2913990D01*
G01X1905000Y-2921000D01*
G01X2459990Y-2447290D02*
G01X2463800Y-2451100D01*
G01X2527300Y-2514600D01*
G01X2512416Y-2451100D02*
G01X2463800Y-2451100D01*
G01X2461616Y-2451100D01*
G01X2628900Y-946810D02*
G01X2679700Y-997610D01*
G01X2768600Y-1086510D01*
G01X2902610Y-1220521D01*
G01X2768600Y-928628D02*
G01X2768600Y-1086510D01*
G01X2768600Y-1229491D01*
G01X2897784Y-1257300D02*
G01X2902610Y-1252474D01*
G01X2910484Y-1244600D01*
G01X2902610Y-1220521D02*
G01X2902610Y-1252474D01*
G01X2902610Y-1257300D01*
G01X3201101Y-1958064D02*
G01X3208579Y-1950587D01*
G01X3345361Y-1813805D01*
G01X3201101Y-1958064D02*
G01X3201101Y-2096849D01*
G01X3201101Y-2202322D01*
G01X2840889Y-2096849D02*
G01X3201101Y-2096849D01*
G01X3321530Y-2096849D01*
G01X2499190Y-884271D02*
G01X2499190Y-1152721D01*
G01X2499190Y-1158410D01*
G01X2501900Y-1150010D02*
G01X2499190Y-1152721D01*
G01X2476500Y-1175410D01*
G01X2473790Y-1183810D02*
G01X2417300Y-1183810D01*
G01X2410290Y-1183810D01*
G01X2371395Y-1222705D01*
G01X2357806Y-1236294D01*
G01X2425700Y-1175410D02*
G01X2417300Y-1183810D01*
G01X2374900Y-1226210D01*
G01X2357806Y-1243305D01*
G01X2357806Y-1236294D02*
G01X2357806Y-1243305D01*
G01X2357806Y-1337310D01*
G01X2374900Y-1226210D02*
G01X2371395Y-1222705D01*
G01X2349500Y-1200810D01*
G01X2618697Y-2268200D02*
G01X2638685Y-2268200D01*
G01X2785190Y-2268200D01*
G01X2663190Y-2292706D02*
G01X2638685Y-2268200D01*
G01X2637790Y-2267306D01*
G01X2165502Y-2590242D02*
G01X2165502Y-2603500D01*
G01X2165502Y-2616200D01*
G01X2178202Y-2616200D02*
G01X2165502Y-2603500D01*
G01X2107794Y-2545791D01*
G01X1308100Y-2489200D02*
G01X1308100Y-2310003D01*
G01X1308100Y-2286000D01*
G01X1294003Y-2566797D02*
G01X1294003Y-2503297D01*
G01X1294003Y-2324100D01*
G01X1308100Y-2310003D01*
G01X1400810Y-2217293D01*
G01X2628900Y-1186790D02*
G01X2559710Y-1186790D01*
G01X2558313Y-1186790D01*
G01X1807794Y-2548890D02*
G01X1807794Y-2545259D01*
G01X1807794Y-2447290D01*
G01X1462200Y-2752090D02*
G01X1528394Y-2752090D01*
G01X1604594Y-2752090D01*
G01X1394993Y-2017293D02*
G01X1295400Y-1917700D01*
G01X1527810Y-2017293D02*
G01X1394993Y-2017293D01*
G01X2019300Y-691998D02*
G01X2019300Y-807110D01*
G01X2731145Y-2025405D02*
G01X2731446Y-2025706D01*
G01X2760187Y-2025706D01*
G01X3044190Y-1717294D02*
G01X3044190Y-1819218D01*
G01X2905343Y-1958064D01*
G01X3027378Y-2038535D02*
G01X3082325Y-1983588D01*
G01X3082325Y-1921007D01*
G04 Track End*

M02*

